<svg width="20" height="21" viewBox="0 0 20 21" xmlns="http://www.w3.org/2000/svg">
<path fill-rule="evenodd" clip-rule="evenodd" d="M14.2257 21H5.77336C2.58451 21 0 18.2855 0 14.9363V6.06368C0 2.71543 2.58451 0 5.77336 0H14.2257C17.4146 0 20 2.71543 20 6.06368V14.9363C20 18.2855 17.4146 21 14.2257 21ZM18.1098 5.78784C18.1098 3.65749 16.4649 1.92992 14.4366 1.92992C14.4366 1.92992 12.3046 1.8192 10.219 1.8192C7.88258 1.8192 5.56345 1.92992 5.56345 1.92992C3.53419 1.92992 1.88932 3.65749 1.88932 5.78784C1.88932 5.78784 1.8366 8.2847 1.8366 10.6928C1.8366 12.9367 1.88932 15.1024 1.88932 15.1024C1.88932 17.2337 3.53419 18.9613 5.56345 18.9613C5.56345 18.9613 7.85805 19.071 10.1136 19.071C12.2928 19.071 14.4366 18.9613 14.4366 18.9613C16.4649 18.9613 18.1098 17.2337 18.1098 15.1024C18.1098 15.1024 18.2152 12.9367 18.2152 10.6928C18.2152 8.2847 18.1098 5.78784 18.1098 5.78784ZM15.3281 6.11808C14.661 6.11808 14.1203 5.55113 14.1203 4.85151C14.1203 4.15094 14.661 3.58399 15.3281 3.58399C15.9951 3.58399 16.5358 4.15094 16.5358 4.85151C16.5358 5.55113 15.9951 6.11808 15.3281 6.11808ZM9.99911 15.929C7.14378 15.929 4.82915 13.4989 4.82915 10.5C4.82915 7.50205 7.14378 5.07199 9.99911 5.07199C12.8553 5.07199 15.1699 7.50205 15.1699 10.5C15.1699 13.4989 12.8553 15.929 9.99911 15.929ZM9.99911 6.9456C8.15887 6.9456 6.66576 8.51282 6.66576 10.4446C6.66576 12.3784 8.15887 13.9456 9.99911 13.9456C11.8412 13.9456 13.3333 12.3784 13.3333 10.4446C13.3333 8.51282 11.8412 6.9456 9.99911 6.9456Z"></path>
</svg>