<svg width="12" height="19" viewBox="0 0 12 19" xmlns="http://www.w3.org/2000/svg">
<path fill-rule="evenodd" clip-rule="evenodd" d="M5.99999 0C8.80338 0 11.077 2.22833 11.077 4.97608C11.077 7.72455 8.80338 9.95233 5.99999 9.95233C3.19593 9.95233 0.923058 7.72455 0.923058 4.97608C0.923058 2.22833 3.19593 0 5.99999 0ZM6.00012 7.23822C7.27453 7.23822 8.30768 6.22563 8.30768 4.97603C8.30768 3.72744 7.27453 2.71443 6.00012 2.71443C4.72537 2.71443 3.6923 3.72744 3.6923 4.97603C3.6923 6.22563 4.72537 7.23822 6.00012 7.23822ZM7.00298 13.6378C7.96669 13.5475 9.44178 13.3104 10.5179 12.684C11.7887 11.9429 12.3292 11.4982 11.7956 10.5247C11.4898 9.96511 10.776 9.64038 9.72369 10.3932C8.30154 11.4103 6.01718 11.4103 6.01718 11.4103C6.01718 11.4103 3.73247 11.4103 2.31013 10.3932C1.25805 9.64038 0.466199 10.074 0.180337 10.596C-0.318041 11.504 0.24526 11.9429 1.51593 12.684C2.60115 13.316 4.09266 13.552 5.05555 13.6397L4.25158 14.3696C3.11926 15.3974 2.02644 16.3894 1.26801 17.0774C0.814538 17.489 0.814538 18.156 1.26801 18.5673L1.40464 18.6914C1.63092 18.897 1.92729 18.9995 2.22365 19H2.228C2.52409 18.9995 2.82046 18.897 3.04674 18.6914L6.03031 15.9839L9.01398 18.6914C9.46758 19.1027 10.2027 19.1027 10.6558 18.6914L10.7927 18.5673C11.2462 18.156 11.2462 17.489 10.7927 17.0774L7.80913 14.3696L7.00298 13.6378Z"></path>
</svg>