<svg width="22" height="12" viewBox="0 0 22 12" xmlns="http://www.w3.org/2000/svg">
  <path fill-rule="evenodd" clip-rule="evenodd" d="M21.8038 10.7034C22.5326 11.8582 20.9965 11.9491 20.9965 11.9491L18.0582 11.989C18.0582 11.989 17.4269 12.1079 16.5957 11.5625C15.4977 10.8412 14.4609 8.96619 13.6536 9.20994C12.8339 9.45968 12.8607 11.1469 12.8607 11.1469C12.8607 11.1469 12.8655 11.5065 12.6799 11.6983C12.4762 11.9071 12.0792 11.9491 12.0792 11.9491H10.7641C10.7641 11.9491 7.86306 12.1169 5.30734 9.57256C2.52111 6.79845 0.0591262 1.29318 0.0591262 1.29318C0.0591262 1.29318 -0.082431 0.932559 0.072519 0.757741C0.245642 0.561945 0.717187 0.548958 0.717187 0.548958L3.86018 0.528979C3.86018 0.528979 4.15669 0.57593 4.36808 0.724775C4.54311 0.847647 4.64163 1.07841 4.64163 1.07841C4.64163 1.07841 5.14952 2.30613 5.82288 3.41697C7.13613 5.58771 7.74732 6.06222 8.19304 5.82946C8.8425 5.49081 8.64833 2.76265 8.64833 2.76265C8.64833 2.76265 8.65981 1.77268 8.32121 1.33114C8.05818 0.990498 7.56368 0.889604 7.34465 0.861633C7.1677 0.838657 7.45847 0.447064 7.83436 0.271247C8.39964 0.0055241 9.39917 -0.0084614 10.5795 0.00252716C11.4986 0.0115178 11.7645 0.0664607 12.1232 0.148375C13.2069 0.399114 12.8396 1.36511 12.8396 3.68269C12.8396 4.42492 12.7 5.46884 13.2595 5.81547C13.5006 5.96332 14.0898 5.83745 15.5627 3.44594C16.261 2.31312 16.7842 0.97951 16.7842 0.97951C16.7842 0.97951 16.898 0.742757 17.0768 0.639864C17.2576 0.535972 17.5034 0.568937 17.5034 0.568937L20.8119 0.548958C20.8119 0.548958 21.8057 0.436076 21.9664 0.864629C22.1347 1.31516 21.5953 2.36607 20.2437 4.08827C18.0247 6.91633 17.777 6.6516 19.6201 8.2869C21.3801 9.84927 21.7445 10.6095 21.8038 10.7034Z"></path>
</svg>